<?xml version="1.0" encoding="utf-8"?>
<!-- Generator: Adobe Illustrator 20.1.0, SVG Export Plug-In . SVG Version: 6.00 Build 0)  -->
<svg version="1.1" id="Слой_1" xmlns="http://www.w3.org/2000/svg" xmlns:xlink="http://www.w3.org/1999/xlink" x="0px" y="0px"
	 viewBox="0 0 556 659" enable-background="new 0 0 556 659" xml:space="preserve">
<g id="Layer_x0020_1">
	<path fill="#AFB4BB" d="M41,212c-13,0-22,7-29,13c-9,9-12,19-12,28v172c0,9,3,19,12,28c7,6,16,12,29,12c9,0,21-6,28-12
		c9-9,12-19,12-28V253c0-9-3-19-12-28C59,219,50,212,41,212z M515,212c-9,0-18,7-28,13c-6,9-12,19-12,28v172c0,9,6,19,12,28
		c10,6,19,12,28,12c13,0,22-6,29-12c9-9,12-19,12-28V253c0-9-3-19-12-28C537,219,528,212,515,212z M97,484c0,13,3,22,12,31
		c10,10,19,13,32,13h28v90c0,10,6,22,12,29c10,9,19,12,28,12c13,0,22-3,28-12c10-7,13-19,13-29v-90h56v90c0,10,3,22,13,29
		c6,9,15,12,28,12c9,0,22-3,28-12c9-7,12-19,12-29v-90h28c13,0,22-3,32-13c9-9,12-18,12-31V222H97V484z M369,59l28-50c0-3,0-6-3-9
		h-4c0,0-3,0-3,3l-28,53c-28-12-53-19-81-19s-53,7-78,19L169,3c0-3,0-3-3-3h-4c-3,3-3,6-3,9l28,50c-28,16-50,35-68,63
		c-16,25-25,53-25,84h368c0-31-9-59-28-84C419,94,397,75,369,59L369,59z M206,134c-3,3-6,7-12,7c-3,0-7-4-10-7c-3,0-6-6-6-9s3-9,6-9
		c3-4,7-7,10-7c6,0,9,3,12,7c3,0,3,6,3,9S209,134,206,134z M372,134c-3,3-7,7-10,7c-6,0-9-4-12-7c-3,0-3-6-3-9s0-9,3-9c3-4,6-7,12-7
		c3,0,7,3,10,7c3,0,6,6,6,9S375,134,372,134z"/>
</g>
</svg>
