<svg width="4447" height="4447" xmlns="http://www.w3.org/2000/svg">
 <defs>
  <style type="text/css">
   <![CDATA[
    .fil0 {fill:#F9705A;fill-rule:nonzero}
   ]]>
  </style>
 </defs>
 <g>
  <title>background</title>
  <rect fill="none" id="canvas_background" height="4449" width="4449" y="-1" x="-1"/>
 </g>
 <g>
  <title>Layer 1</title>
  <g id="Layer_x0020_1">
   <metadata transform="translate(0,13.5) translate(-5.5,0) translate(0,-228) translate(-206,0) " id="CorelCorpID_0Corel-Layer"/>
   <path id="svg_1" d="m3793.5,2852.5c217,146 450,303 515,355l1,0c97,77 135,150 139,228c4,71 -21,129 -53,193l-5,17c-23,68 -47,130 -92,203c-44,71 -105,148 -202,245l0,0c-75,79 -169,163 -291,228c-126,66 -278,112 -463,112c-99,0 -205,-13 -319,-41c-110,-26 -228,-67 -356,-122l0,1c-227,-98 -463,-247 -676,-403c-410,-300 -739,-625 -758,-644l0,0l0,0c-33,-34 -767,-767 -1050,-1434l0,0c-162,-384 -189,-670 -140,-896c49,-234 175,-398 317,-540c99,-99 176,-162 246,-206c72,-45 134,-69 203,-92l9,-3l8,-1l17,-3c8,-3 16,-5 22,-7c48,-16 87,-29 133,-29c65,0 117,23 161,55c36,27 62,58 86,87c45,55 169,238 296,425c74,110 149,221 191,282l5,8c24,41 49,78 69,105c14,22 26,39 35,53c29,39 50,78 61,117c14,49 13,98 -1,145c-14,44 -38,86 -74,124c-31,33 -70,63 -118,88l-3,1c-77,39 -146,83 -199,126c-24,18 -43,34 -56,47c93,116 354,380 562,591c30,30 59,60 86,87c126,124 290,285 435,423c102,97 193,181 250,229c4,-9 12,-21 24,-36c43,-51 93,-123 144,-214c14,-39 49,-103 107,-149c46,-37 104,-63 178,-63c30,0 66,5 103,17c30,11 61,26 92,48l1,2c13,10 37,25 66,44c31,20 66,43 100,66l0,0c60,41 59,40 194,131zm285,676l7,-18c10,-27 17,-31 15,-37c-3,-15 -2,13 -14,3l-1,-1c-33,-26 -148,-105 -284,-196c-152,-103 -297,-199 -404,-271l-1,-1c-23,-15 -48,-33 -70,-49c-37,-27 -67,-48 -75,-51c-1,0 -1,2 -2,3l0,0c-44,80 -106,186 -179,275c-86,105 -190,185 -306,185c-22,0 -44,-3 -64,-9c-18,-4 -33,-10 -47,-15l-6,-3l-6,-3c-61,-34 -181,-138 -310,-259c-201,-189 -435,-426 -487,-483c-50,-47 -303,-295 -499,-503c-116,-123 -214,-235 -247,-294l-7,-11l-3,-11c-8,-26 -14,-51 -17,-80c-4,-33 -2,-66 9,-102l1,-3c27,-80 89,-153 163,-216c97,-84 217,-152 288,-189c-4,-6 -7,-11 -11,-18c-18,-27 -44,-66 -79,-111l-5,-8c-84,-130 -201,-306 -297,-447c-77,-113 -142,-206 -167,-237c-6,2 -12,5 -19,7l-20,8l-9,3c-40,13 -79,25 -125,53c-49,28 -108,74 -188,154l0,0c-114,120 -199,244 -225,400c-27,163 6,369 128,653l0,0c85,201 221,415 365,611c284,388 595,702 609,716l0,0c14,14 328,324 716,610c196,144 410,282 611,368l0,0c106,46 205,79 297,101c89,21 170,31 245,31c96,0 181,-15 262,-51c83,-36 163,-95 248,-182l0,0c81,-81 127,-140 155,-188c27,-46 40,-85 52,-125l3,-9zm-3080,-3169c-1,0 -1,0 -1,0c2,0 3,0 1,0zm549,851l0,0l0,0l0,0z" class="fil0"/>
  </g>
 </g>
</svg>