<?xml version="1.0" encoding="utf-8"?>
<!-- Generator: Adobe Illustrator 20.1.0, SVG Export Plug-In . SVG Version: 6.00 Build 0)  -->
<svg version="1.1" id="Слой_1" xmlns="http://www.w3.org/2000/svg" xmlns:xlink="http://www.w3.org/1999/xlink" x="0px" y="0px"
	 viewBox="0 0 474 581" enable-background="new 0 0 474 581" xml:space="preserve">
<g id="Layer_x0020_1">
	<path fill="#AFB4BB" d="M395.7,309.5c0-74.9,58.9-109.8,61.9-109.8c-33.9-49.9-86.9-58.9-105.8-58.9c-46.9-3-87.8,28-112.8,28
		c-21,0-55.9-28-92.8-28c-49.9,3-96.8,30.9-121.8,74.9c-49.9,86.9-13,221.6,36.9,293.5c25,33.9,52.9,74.9,90.8,71.9
		c36.9,0,49.9-22,96.8-22c43.9,0,55.9,22,93.8,22c39.9,0,64.9-34.9,89.8-71.9c28-40.9,40.9-81.9,40.9-81.9S395.7,396.3,395.7,309.5
		L395.7,309.5z M320.9,93.8c22-25,33.9-59.9,30.9-93.8c-28,0-65.9,19-83.9,43.9c-19,22-37.9,55.9-31.9,89.8
		C267.9,137.8,301.9,118.8,320.9,93.8z"/>
</g>
</svg>
