<svg id="Слой_2" data-name="Слой 2" xmlns="http://www.w3.org/2000/svg" viewBox="0 0 40 40"><defs><style>.cls-1{fill:#010002;}</style></defs><title>fb</title><path class="cls-1" d="M732,364a20,20,0,1,0,20,20A20,20,0,0,0,732,364Zm0,38a18,18,0,1,1,18-18A18,18,0,0,1,732,402Z" transform="translate(-712 -364)"/><path class="cls-1" d="M729,378.9v2.53h-3v3.42h3v8.78h3.54v-8.78h2.95l.44-3.42h-3.39v-2.19c0-1,.27-1.67,1.7-1.67H736v-3.06a24.57,24.57,0,0,0-2.64-.13C730.75,374.37,729,376,729,378.9Z" transform="translate(-712 -364)"/></svg>