<?xml version="1.0" encoding="utf-8"?>
<!-- Generator: Adobe Illustrator 20.1.0, SVG Export Plug-In . SVG Version: 6.00 Build 0)  -->
<svg version="1.1" id="Слой_1" xmlns="http://www.w3.org/2000/svg" xmlns:xlink="http://www.w3.org/1999/xlink" x="0px" y="0px"
	 viewBox="0 0 2900 859" enable-background="new 0 0 2900 859" xml:space="preserve">
<g id="Layer_x0020_1">
	<path fill="#AFB4BB" d="M2793,17c49,0,90,41,90,90v645c0,50-41,90-90,90H107c-49,0-90-40-90-90V107c0-49,41-90,90-90H2793 M2793,0
		H107C48,0,0,48,0,107v645c0,59,48,107,107,107h2686c59,0,107-48,107-107V107C2900,48,2852,0,2793,0L2793,0z M905,307h-16v-44h13
		c11-9,16-26,16-49v-64h86v113h14v44h-16v-28h-97V307L905,307z M934,214c1,20-3,37-12,49h65v-97h-53V214L934,214z M1148,263
		c-13,13-29,19-48,19s-34-6-47-19s-19-29-19-48s6-35,19-48s28-19,47-19s35,6,48,19c12,13,19,29,19,48S1160,250,1148,263z M1065,252
		c10,10,22,14,35,14c14,0,26-4,35-14c10-10,14-22,14-37s-4-28-14-37c-9-10-21-15-35-15c-13,0-25,5-35,15c-9,9-14,22-14,37
		S1056,242,1065,252z M1250,282c-19,0-35-6-48-19s-19-29-19-48s6-35,19-48s29-19,48-19s35,6,47,20l-11,12c-9-11-21-17-36-17
		c-14,0-26,5-36,14c-9,10-14,23-14,38s5,28,14,37c10,10,22,14,36,14c15,0,29-6,40-18l11,11c-6,7-13,13-22,17S1260,282,1250,282z
		 M1368,279h-17V166h-36v-16h89v16h-36V279L1368,279z M1518,150l-49,109c-7,16-17,23-30,23c-4,0-8-1-13-3l4-15c3,2,6,2,9,2
		c4,0,7,0,9-2s4-4,6-8l5-10l-44-96h20l31,74h1l31-74H1518L1518,150z M1536,279V150h94v129h-17V166h-60v113H1536L1536,279z M1659,279
		V150h17v56h64v-56h17v129h-17v-58h-64v58H1659z M1892,263c-13,13-29,19-47,19c-19,0-35-6-48-19c-12-13-19-29-19-48s7-35,19-48
		c13-13,29-19,48-19c18,0,34,6,47,19c12,13,19,29,19,48S1904,250,1892,263z M1809,252c10,10,22,14,36,14c13,0,25-4,34-14
		c10-10,15-22,15-37s-5-28-15-37c-9-10-21-15-34-15c-14,0-26,5-36,15c-9,9-14,22-14,37S1800,242,1809,252z M1978,279V150h47
		c10,0,19,4,26,10c7,7,11,15,11,26c0,5-1,11-4,16c-4,4-8,8-13,10v1c6,2,11,6,15,11c5,5,7,12,7,19c0,10-4,19-12,26s-17,10-27,10H1978
		L1978,279z M1995,206h30c6,0,11-2,15-6c4-5,6-9,6-14s-2-9-6-14c-3-4-8-6-14-6h-31V206L1995,206L1995,206z M1995,263h33
		c7,0,12-2,16-6c4-5,6-9,6-15c0-5-2-10-6-14c-5-5-10-7-16-7h-33V263L1995,263z M1464,467c-51,0-92,39-92,92c0,52,41,91,92,91
		c50,0,91-39,91-91C1555,506,1514,467,1464,467z M1464,614c-28,0-52-23-52-55c0-33,24-56,52-56s51,23,51,56
		C1515,591,1492,614,1464,614z M1264,467c-51,0-92,39-92,92c0,52,41,91,92,91c50,0,92-39,92-91C1356,506,1314,467,1264,467z
		 M1264,614c-28,0-52-23-52-55c0-33,24-56,52-56c27,0,51,23,51,56C1315,591,1291,614,1264,614z M1026,495v39h92c-2,22-10,38-21,49
		c-13,13-34,28-71,28c-57,0-102-46-102-103s45-103,102-103c30,0,53,12,70,28l27-28c-23-22-54-39-97-39c-79,0-144,64-144,142
		s65,142,144,142c42,0,74-14,99-40c25-25,33-61,33-90c0-9,0-18-2-25H1026L1026,495L1026,495z M1999,526c-8-21-31-59-78-59
		s-86,37-86,92c0,51,38,91,90,91c42,0,66-25,77-40l-32-21c-10,15-24,25-45,25c-20,0-35-9-44-28l122-50L1999,526z M1874,556
		c-1-35,28-54,48-54c16,0,30,9,34,20L1874,556z M1775,644h40V376h-40V644z M1709,488h-1c-9-11-27-21-48-21c-46,0-88,40-88,92
		c0,51,42,91,88,91c22,0,39-10,48-21h1v13c0,35-18,54-48,54c-25,0-40-18-46-33l-35,15c10,24,36,54,81,54c47,0,86-28,86-95V473h-38
		V488L1709,488L1709,488z M1663,614c-27,0-51-23-51-55s24-56,51-56s49,24,49,56S1690,614,1663,614z M2187,376h-96v268h40V543h56
		c45,0,88-32,88-84C2275,408,2232,376,2187,376z M2188,505h-57v-92h57c30,0,47,25,47,46S2218,505,2188,505z M2436,467
		c-29,0-59,12-72,41l36,15c7-15,22-20,36-20c21,0,42,13,43,35v2c-8-4-23-10-42-10c-39,0-77,21-77,61c0,35,31,58,66,58
		c27,0,42-11,51-26h2v21h38V541C2517,493,2482,467,2436,467L2436,467z M2431,614c-13,0-32-7-32-23c0-21,23-28,43-28c18,0,26,3,37,9
		C2476,597,2454,614,2431,614L2431,614z M2658,473l-46,116h-1l-48-116h-43l72,162l-41,91h42l110-253H2658L2658,473z M2297,644h40
		V376h-40V644z M215,431c0-79,0-157,0-236c0-9,1-18,8-26c3-2,5-3,8,0c53,54,106,108,158,162c35,34,69,69,104,104c3,3,3,5,0,9
		c-85,83-169,167-253,251c-5,5-8,5-13,1c-9-7-12-16-12-27c0-47-1-93-1-140c0-33,0-65,0-98H215L215,431z M245,160c6,0,11,2,15,5
		c107,60,215,120,322,180c5,3,5,5,1,8c-24,24-47,48-71,72c-3,2-4,4-8,0c-85-87-171-174-257-261C247,163,246,162,245,160L245,160z
		 M269,693c78-79,156-158,234-237c4-5,7-4,11,1c20,20,40,40,60,61c4,3,4,5-1,8c-100,54-200,109-300,164C271,691,270,693,269,693z
		 M714,433c0,9-4,15-10,20c-5,3-10,6-15,9c-31,17-61,33-91,50c-4,2-6,2-10-1c-21-23-43-45-65-67c-3-3-3-5,0-8c25-25,51-50,76-75
		c3-3,5-4,9-2c30,17,60,34,90,51C707,415,714,422,714,433L714,433z"/>
</g>
</svg>
