<svg xmlns="http://www.w3.org/2000/svg" width="24" height="18" viewBox="0 0 24 18">
  <metadata><?xpacket begin="﻿" id="W5M0MpCehiHzreSzNTczkc9d"?>
<x:xmpmeta xmlns:x="adobe:ns:meta/" x:xmptk="Adobe XMP Core 5.6-c138 79.159824, 2016/09/14-01:09:01        ">
   <rdf:RDF xmlns:rdf="http://www.w3.org/1999/02/22-rdf-syntax-ns#">
      <rdf:Description rdf:about=""/>
   </rdf:RDF>
</x:xmpmeta>
                                                                                                    
                                                                                                    
                                                                                                    
                                                                                                    
                                                                                                    
                                                                                                    
                                                                                                    
                                                                                                    
                                                                                                    
                                                                                                    
                                                                                                    
                                                                                                    
                                                                                                    
                                                                                                    
                                                                                                    
                                                                                                    
                                                                                                    
                                                                                                    
                                                                                                    
                                                                                                    
                           
<?xpacket end="w"?></metadata>
<defs>
    <style>
      .cls-1 {
        fill: #fff;
        fill-rule: evenodd;
      }
    </style>
  </defs>
  <path class="cls-1" d="M1539.93,1081.24a0.209,0.209,0,0,1-.04-0.06,0.466,0.466,0,0,0-.55-0.14l-23.03,9.14a0.5,0.5,0,0,0-.31.51,0.49,0.49,0,0,0,.39.45l6.29,1.28,1.35,6.15,0.01,0.04a0.487,0.487,0,0,0,.04.11l0.03,0.06a0.572,0.572,0,0,0,.07.08,0.4,0.4,0,0,0,.22.12,0.037,0.037,0,0,0,.03.01c0.03,0,.05.01,0.08,0.01s0.06-.01.09-0.01,0.03-.01.05-0.02h0.02a0.161,0.161,0,0,0,.07-0.04h0.01c0.01-.01.02-0.01,0.03-0.02l6.61-4.84,3.73,0.73a0.277,0.277,0,0,0,.09.01,0.483,0.483,0,0,0,.46-0.33l4.3-12.8a0.235,0.235,0,0,0,.02-0.08,0.375,0.375,0,0,0,.01-0.11A0.43,0.43,0,0,0,1539.93,1081.24Zm-12.55,11.22a0.229,0.229,0,0,0-.07.1,0.022,0.022,0,0,0-.02.02l-2.58,4.58-1.08-4.93,11.93-7.62Z" transform="translate(-1516 -1081)"/>
</svg>
