<svg id="Слой_3" data-name="Слой 3" xmlns="http://www.w3.org/2000/svg" viewBox="0 0 40 40"><title>youtube</title><path d="M783,364a20,20,0,1,0,20,20A20,20,0,0,0,783,364Zm0,38a18,18,0,1,1,18-18A18,18,0,0,1,783,402Z" transform="translate(-763.01 -364)"/><path d="M787.63,377h-9.24c-2.6,0-4,.37-4.68,1.29s-.7,2.2-.7,4v3.46c0,3.52.83,5.31,5.38,5.31h9.24c2.21,0,3.43-.31,4.22-1.07s1.16-2,1.16-4.24v-3.46c0-1.92-.05-3.24-.78-4.1S790.17,377,787.63,377Zm-1.78,7.52-4.2,2.19a.65.65,0,0,1-.94-.57v-4.37a.65.65,0,0,1,.94-.57l4.2,2.18a.65.65,0,0,1,0,1.14Z" transform="translate(-763.01 -364)"/></svg>