<!-- Generated by IcoMoon.io -->
<svg version="1.1" xmlns="http://www.w3.org/2000/svg" width="32" height="32" viewBox="0 0 32 32">
<title>clock</title>
<path fill="#f9705a" d="M4.672 4.68c2.893-2.893 6.876-4.68 11.29-4.68 4.407 0 8.398 1.787 11.283 4.68 2.893 2.885 4.68 6.883 4.68 11.283 0 4.415-1.787 8.405-4.672 11.29-2.885 2.893-6.876 4.672-11.29 4.672s-8.405-1.779-11.29-4.672c-2.893-2.885-4.672-6.876-4.672-11.29 0-4.399 1.787-8.398 4.672-11.283zM15.493 3.604h1.787v11.707l8.299 8.284-1.87 1.87-0.598-0.606-8.466-8.458v-12.797h0.848zM6.558 25.39c2.408 2.408 5.732 3.907 9.405 3.907s6.997-1.499 9.405-3.907c2.408-2.416 3.907-5.747 3.907-9.427 0-3.665-1.492-6.997-3.907-9.405-2.408-2.408-5.74-3.9-9.405-3.9-3.672 0-6.997 1.492-9.412 3.9-2.408 2.408-3.9 5.74-3.9 9.405 0 3.68 1.492 7.012 3.907 9.427z"></path>
</svg>
