<!-- Generated by IcoMoon.io -->
<svg version="1.1" xmlns="http://www.w3.org/2000/svg" width="32" height="32" viewBox="0 0 32 32">
<title>mail</title>
<path fill="#f9705a" d="M0 26.326v-21.388h31.993v0.709h0.118l-0.118 0.098v21.316h-31.993v-0.735zM17.054 16.896l11.091-9.771h-24.159l11.052 9.771c0.289 0.256 0.644 0.381 1.031 0.381 0.177 0 0.355-0.033 0.519-0.092 0.158-0.066 0.315-0.158 0.46-0.289h0.007zM2.187 24.875h27.62v-16.273l-11.275 9.89c-0.341 0.387-0.735 0.552-1.13 0.722v0c-0.204 0.085-0.42 0.151-0.644 0.19-0.243 0.046-0.479 0.059-0.689 0.059-0.217 0-0.447-0.013-0.676-0.053-0.243-0.039-0.479-0.099-0.703-0.197-0.19-0.079-0.374-0.164-0.558-0.276-0.204-0.125-0.394-0.263-0.578-0.447v0l-11.367-9.982v16.364zM17.402 19.214v0z"></path>
</svg>
