<?xml version="1.0" encoding="utf-8"?>
<!-- Generator: Adobe Illustrator 20.1.0, SVG Export Plug-In . SVG Version: 6.00 Build 0)  -->
<svg version="1.1" id="Слой_1" xmlns="http://www.w3.org/2000/svg" xmlns:xlink="http://www.w3.org/1999/xlink" x="0px" y="0px"
	 viewBox="0 0 414.4 122.8" enable-background="new 0 0 414.4 122.8" xml:space="preserve">
<path fill-rule="evenodd" clip-rule="evenodd" fill="#AFB4BB" d="M411.4,108.3c0,6.4-5.3,11.7-11.7,11.7H14.4
	c-6.4,0-11.7-5.3-11.7-11.7V14.4C2.7,8,8,2.7,14.4,2.7h385.3c6.4,0,11.7,5.3,11.7,11.7V108.3z M399.7,122.8H14.4
	c-8,0-14.4-6.6-14.4-14.4V14.4C0,6.4,6.4,0,14.4,0h385.3c8,0,14.7,6.4,14.7,14.4v93.9C414.4,116.2,407.7,122.8,399.7,122.8z
	 M368.8,78.9c0-1.9-0.4-3.6-1.3-5c-1.1-1.9-2.9-2.7-5.3-2.7c-2.1,0-3.9,0.9-5.1,2.6c-1.1,1.4-1.7,3.1-2,5.1H368.8z M375,80.6
	c0,1.1,0,2.1-0.1,3h-19.7c0.1,2.9,1,5.1,2.9,6.6c1.7,1.4,3.9,2.1,6.4,2.1c2.9,0,5.6-0.4,7.9-1.4l1.1,4.6c-2.9,1.3-6.1,1.9-9.9,1.9
	c-4.6,0-8.1-1.4-10.7-4c-2.7-2.7-4-6.4-4-10.9s1.3-8.1,3.7-11.1c2.4-3.1,5.9-4.7,10.3-4.7c4.1,0,7.4,1.6,9.6,4.7
	C374.1,73.7,375,76.9,375,80.6z M345.7,73c-0.6-0.1-1.3-0.1-2-0.1c-2.3,0-4.1,0.9-5.3,2.6c-1.1,1.6-1.7,3.4-1.7,5.7v15.6h-6.6
	l0.1-20.3c0-3.3-0.1-6.4-0.3-9.1h5.7l0.3,5.6h0.1c0.7-1.9,1.9-3.4,3.3-4.6c1.4-1.1,3-1.7,4.7-1.7c0.6,0,1.1,0.1,1.6,0.1V73L345.7,73
	z M317.7,81.9c0-2.7-0.6-5-1.7-6.9c-1.4-2.4-3.4-3.6-5.9-3.6c-2.7,0-4.7,1.1-6,3.6c-1.1,1.9-1.9,4.3-1.9,7s0.7,5.1,1.9,7
	c1.4,2.4,3.3,3.6,5.9,3.6c2.6,0,4.4-1.3,5.9-3.6C317.1,87,317.7,84.6,317.7,81.9z M324.4,81.7c0,4.6-1.3,8.3-3.9,11.1
	c-2.7,3-6.3,4.4-10.7,4.4c-4.3,0-7.7-1.3-10.3-4.3c-2.7-2.9-4-6.4-4-10.9c0-4.4,1.4-8.3,4-11.1c2.7-2.9,6.3-4.4,10.7-4.4
	c4.3,0,7.9,1.4,10.4,4.4C323.3,73.7,324.4,77.3,324.4,81.7z M292,72.2h-7.3v14.3c0,3.6,1.3,5.4,3.9,5.4c1.1,0,2.1,0,2.9-0.3l0.3,5
	c-1.3,0.4-3,0.7-5.1,0.7c-2.6,0-4.6-0.7-6-2.4c-1.6-1.6-2.3-4.1-2.3-7.9V72.2H274v-4.9h4.3v-5.4l6.4-2v7.4h7.3V72.2L292,72.2z
	 M270.2,85.3c0,3.4-1.1,6.3-3.6,8.4c-2.7,2.4-6.4,3.6-11.1,3.6c-4.4,0-7.9-0.9-10.6-2.6l1.4-5.4c3,1.7,6.1,2.6,9.6,2.6
	c2.4,0,4.4-0.6,5.7-1.6c1.4-1.1,2.1-2.7,2.1-4.6c0-1.6-0.7-3-1.7-4.1c-1.1-1.1-3-2.1-5.7-3.1c-7.1-2.7-10.7-6.6-10.7-11.7
	c0-3.4,1.3-6.1,3.7-8.3c2.6-2.1,5.9-3.1,10-3.1c3.7,0,6.9,0.6,9.3,1.9l-1.6,5.4c-2.3-1.3-4.9-2-7.9-2c-2.3,0-4.1,0.6-5.4,1.7
	c-1,1-1.6,2.3-1.6,3.7c0,1.7,0.6,3,1.9,4c1.1,1,3,2,6,3.1c3.4,1.4,6,3.1,7.7,5c1.6,1.9,2.4,4.3,2.4,7L270.2,85.3L270.2,85.3z
	 M225.8,81.9c0-2.9-0.7-5.3-2-7.1c-1.4-1.9-3.3-2.9-5.7-2.9c-1.6,0-3,0.6-4.4,1.6c-1.3,1-2.1,2.4-2.6,4.3c-0.1,0.7-0.3,1.4-0.3,2
	v4.9c0,2.1,0.7,4,2,5.4c1.3,1.4,3,2.1,5.1,2.1c2.4,0,4.3-0.9,5.7-2.9C225.1,87.5,225.8,85,225.8,81.9z M232.4,81.6c0,5-1.3,9-4,11.9
	c-2.4,2.6-5.4,3.9-9,3.9c-4,0-6.7-1.3-8.4-4.1h-0.1v15.6h-6.6V77c0-3.3,0-6.4-0.1-9.7h5.7l0.4,4.6c2.3-3.4,5.6-5.3,10-5.3
	c3.4,0,6.4,1.4,8.7,4.1C231.2,73.6,232.4,77.2,232.4,81.6z M191.8,81.9c0-2.9-0.6-5.3-1.9-7.1c-1.4-1.9-3.3-2.9-5.7-2.9
	c-1.6,0-3.1,0.6-4.4,1.6c-1.3,1-2.1,2.4-2.6,4.3c-0.1,0.7-0.3,1.4-0.3,2v4.9c0,2.1,0.7,4,2,5.4c1.3,1.4,3,2.1,5.1,2.1
	c2.4,0,4.3-0.9,5.7-2.9C191.2,87.5,191.8,85,191.8,81.9z M198.5,81.6c0,5-1.4,9-4,11.9c-2.4,2.6-5.4,3.9-9,3.9c-4,0-6.7-1.3-8.4-4.1
	h-0.1v15.6h-6.6V77c0-3.3,0-6.4-0.1-9.7h5.7l0.3,4.6h0.1c2.3-3.4,5.6-5.3,10-5.3c3.4,0,6.3,1.4,8.7,4.1
	C197.4,73.6,198.5,77.2,198.5,81.6z M152.8,79.7L149.3,69c-0.4-1.1-1.1-3.7-2.1-7.7c-0.4,1.7-1.1,4.3-2,7.7l-3.4,10.7H152.8z
	 M164.8,96.7h-7l-3.9-12h-13.3l-3.6,12h-6.9l13.1-40.9h8.1L164.8,96.7z M294.8,39c0.3,0.1,0.7,0.1,1,0.1c0.3,0,0.6,0,0.9,0
	c0.4,0,0.9,0,1.4,0c0.4-0.1,0.9-0.3,1.1-0.4c0.4-0.1,0.7-0.4,1-0.7c0.1-0.3,0.3-0.6,0.3-1.1c0-0.7-0.3-1.3-1-1.6
	c-0.9-0.4-1.9-0.6-3-0.6h-1.7V39z M294.8,32.7h1.6c0.6,0,1-0.1,1.4-0.1c0.4-0.1,0.9-0.1,1.1-0.3c0.4-0.3,0.6-0.4,0.9-0.7
	c0.1-0.1,0.3-0.4,0.3-0.9c0-0.7-0.3-1.1-0.9-1.4c-0.6-0.3-1.4-0.4-2.6-0.4c-0.3,0-0.6,0-0.9,0c-0.3,0-0.6,0-1,0.1V32.7z M291.7,26.9
	c0.6-0.1,1.3-0.1,2.3-0.3c0.9,0,1.7,0,2.7,0c0.6,0,1.3,0,2,0c0.7,0.1,1.4,0.3,2.1,0.6c0.6,0.3,1.1,0.6,1.6,1.1
	c0.6,0.4,0.7,1.1,0.7,2c0,0.4,0,0.9-0.1,1.1c-0.1,0.4-0.4,0.7-0.7,0.9c-0.3,0.3-0.6,0.6-0.9,0.7c-0.4,0.1-0.7,0.3-1.1,0.3v0.1
	c1.1,0.1,2,0.6,2.6,1.1c0.7,0.6,1,1.4,1,2.4c0,1-0.3,1.7-0.9,2.4c-0.6,0.6-1.1,1-2,1.3c-0.9,0.3-1.7,0.6-2.6,0.6
	c-0.9,0.1-1.7,0.1-2.4,0.1c-0.9,0-1.6,0-2.4,0c-0.7-0.1-1.3-0.1-1.9-0.1V26.9z M275.7,32.4c0-1.1-0.3-2-0.9-2.7
	c-0.6-0.7-1.3-1.1-2.3-1.1c-1,0-1.9,0.4-2.4,1.1c-0.7,0.7-1,1.6-1.1,2.7H275.7z M278.7,33.3c0,0.3,0,0.6,0,0.9c0,0.1,0,0.4,0,0.6
	H269c0,1.4,0.4,2.4,1.3,3.3c0.9,0.7,1.9,1,3.3,1c1.4,0,2.7-0.1,3.9-0.6l0.6,2.1c-1.4,0.6-3,0.9-4.9,0.9c-1.1,0-2.1-0.1-3.1-0.4
	c-0.9-0.4-1.6-0.9-2.1-1.6c-0.6-0.6-1.1-1.3-1.4-2.1c-0.4-1-0.6-2-0.6-3.1c0-1,0.1-2.1,0.6-3c0.3-1,0.7-1.9,1.4-2.4
	c0.6-0.7,1.3-1.3,2.1-1.7c0.7-0.4,1.7-0.6,2.7-0.6c1,0,1.9,0.1,2.6,0.4c0.7,0.4,1.3,0.9,1.9,1.4c0.6,0.6,0.9,1.4,1.1,2.3
	C278.7,31.3,278.7,32.3,278.7,33.3z M262.4,26.7v2.7H258v11.9h-3.1V29.4h-4.4v-2.7H262.4z M235.5,26.7v5.1c0,1.1,0,2.3,0,3.1
	c-0.1,1-0.1,2-0.1,3c0.4-0.7,0.7-1.4,1.1-2.1c0.3-0.7,0.7-1.6,1-2.3l3.7-6.9h4.1v14.6h-3.1v-5.1c0-1.1,0.1-2.1,0.1-3.3
	c0-1,0.1-2.1,0.1-3.3h-0.1c-0.3,1-0.7,1.7-1,2.4c-0.3,0.6-0.7,1.3-1,2c-0.6,1.1-1.3,2.4-1.9,3.6c-0.6,1.1-1.3,2.4-1.9,3.7h-4.1V26.7
	L235.5,26.7L235.5,26.7z M218.4,32.7h1.4c1.1,0,2-0.1,2.6-0.6c0.6-0.4,0.9-0.9,0.9-1.4c0-0.6-0.3-1-0.7-1.4
	c-0.6-0.3-1.1-0.6-2.1-0.6c-0.6,0-1.1,0.1-1.7,0.3c-0.6,0.3-1.1,0.4-1.6,0.7l-0.9-2c0.9-0.6,1.7-0.9,2.4-1c0.9-0.1,1.7-0.3,2.6-0.3
	c0.6,0,1.3,0.1,2,0.1c0.6,0.1,1.1,0.4,1.7,0.7c0.4,0.3,1,0.7,1.3,1.3c0.3,0.4,0.4,1,0.4,1.9c0,0.4,0,0.9-0.3,1.1
	c-0.1,0.4-0.4,0.7-0.7,1c-0.3,0.1-0.6,0.4-1,0.6c-0.3,0.1-0.7,0.3-1.1,0.4c0.6,0.1,1,0.3,1.4,0.4c0.4,0.1,0.9,0.4,1.3,0.7
	c0.3,0.3,0.6,0.6,0.9,1c0.1,0.4,0.3,0.9,0.3,1.4c0,0.9-0.1,1.6-0.6,2.1c-0.4,0.6-1,1-1.7,1.3c-0.6,0.3-1.3,0.6-2.1,0.7
	c-0.7,0.1-1.4,0.3-2.1,0.3c-0.9,0-1.9-0.1-2.7-0.3c-0.9-0.1-1.6-0.6-2.3-0.9l0.9-2.1c0.4,0.3,1,0.4,1.7,0.7c0.7,0.1,1.3,0.3,2,0.3
	c1.1,0,2-0.3,2.6-0.7c0.6-0.4,0.9-0.9,0.9-1.6c0-0.4-0.1-0.7-0.3-1c-0.1-0.3-0.6-0.6-0.9-0.7c-0.4-0.1-0.7-0.3-1.3-0.4
	c-0.4,0-1,0-1.4,0l-1.6-0.1V32.7z M212.8,26.7l-3.7,10c-0.9,2.4-1.7,4.4-2.6,6c-0.7,1.4-1.6,2.6-2.3,3.3c-1.1,1-2.3,1.6-3.6,1.7
	l-0.9-2.7c0.9-0.1,1.7-0.6,2.4-1.1c0.9-0.7,1.4-1.6,1.9-2.4c0.1-0.3,0.3-0.6,0.3-0.7c0,0-0.1-0.3-0.3-0.6l-5.1-13.4h3.6l2.7,8.1
	c0.1,0.4,0.3,0.7,0.4,1.3c0.1,0.4,0.3,1,0.4,1.6c0.1-0.3,0.3-0.7,0.4-1.3c0-0.4,0.1-1,0.4-1.7l2.4-8H212.8z M192.2,34
	c0-0.7-0.1-1.4-0.3-2c-0.1-0.7-0.4-1.1-0.7-1.6c-0.3-0.4-0.7-0.9-1.1-1c-0.4-0.3-1-0.4-1.6-0.4c-0.4,0-0.9,0.1-1.4,0.3
	c-0.4,0.3-0.7,0.6-1.1,0.9c-0.3,0.3-0.6,0.7-0.7,1.1c-0.3,0.6-0.3,1-0.3,1.6v2.4c0,0.6,0,1,0.1,1.4c0.3,0.6,0.4,0.9,0.7,1.3
	c0.4,0.3,0.7,0.6,1.1,0.7c0.4,0.1,0.9,0.3,1.4,0.3c1.3,0,2.1-0.4,2.9-1.4C191.9,36.7,192.2,35.4,192.2,34z M195.5,33.9
	c0,1.1-0.1,2.1-0.4,3.1c-0.4,1-0.9,1.7-1.4,2.4c-0.6,0.7-1.1,1.1-2,1.6c-0.7,0.4-1.6,0.6-2.6,0.6c-1.9,0-3.3-0.7-4.1-2.1v7.7h-3.3
	V31.6c0-0.9,0-1.6,0-2.4c0-0.7,0-1.6,0-2.4h2.7l0.1,2.3h0.1c1-1.7,2.7-2.6,4.9-2.6c0.9,0,1.6,0.1,2.4,0.6c0.7,0.3,1.3,0.9,1.9,1.6
	c0.6,0.6,1,1.4,1.3,2.3C195.4,31.7,195.5,32.7,195.5,33.9z M177.1,26.7v2.7h-6v11.9h-3.1V26.7H177.1z M158.5,34
	c-1.9,0-3.1,0.3-4,0.7c-1,0.4-1.4,1.1-1.4,2.3c0,0.7,0.3,1.3,0.7,1.7c0.4,0.3,0.9,0.4,1.6,0.4c0.4,0,0.7,0,1.1-0.1
	c0.4-0.1,0.7-0.4,1-0.6c0.3-0.3,0.6-0.6,0.7-1c0.1-0.4,0.3-0.7,0.3-1.1V34z M158.9,41.3l-0.3-1.7c-1,1.3-2.4,2-4.3,2
	c-0.7,0-1.3-0.1-1.7-0.3c-0.6-0.3-1.1-0.6-1.4-1c-0.4-0.3-0.7-0.9-1-1.3c-0.1-0.6-0.3-1.1-0.3-1.7c0-1.9,0.7-3.1,2.1-4
	c1.6-1,3.6-1.4,6.3-1.4v-0.3c0-1.9-1-2.9-3-2.9c-1.4,0-2.7,0.4-3.7,1.1l-0.7-2.1c1.3-0.9,3-1.3,5-1.3c3.7,0,5.7,2,5.7,6v5.3
	c0,1.6,0,2.7,0.1,3.6H158.9L158.9,41.3z M133.3,22.3c0.7-0.4,1.4-0.7,2.4-1c0.7-0.3,1.9-0.4,3-0.4c2,0,3.4,0.4,4.6,1.3
	c1.1,1,1.7,2.1,1.7,3.7c0,1.3-0.4,2.3-1.1,3.1c-0.7,0.9-1.7,1.4-2.9,1.7c0.7,0.1,1.3,0.3,1.9,0.6c0.6,0.3,1,0.6,1.4,1
	c0.4,0.4,0.9,0.9,1,1.4c0.3,0.6,0.4,1.1,0.4,1.9c0,1.1-0.3,2-0.7,2.9c-0.4,0.7-1,1.3-1.7,1.7c-0.7,0.6-1.6,0.9-2.4,1.1
	c-1,0.1-1.9,0.3-2.7,0.3c-1,0-1.9-0.1-2.9-0.3c-0.9-0.3-1.7-0.6-2.6-1l0.9-2.4c0.4,0.1,1.1,0.4,2,0.7c0.9,0.1,1.6,0.3,2.4,0.3
	c1.4,0,2.4-0.3,3.1-0.9c0.7-0.6,1.1-1.4,1.1-2.4c0-0.7-0.1-1.3-0.4-1.7c-0.3-0.6-0.7-0.9-1.1-1.1c-0.6-0.1-1-0.4-1.6-0.6
	c-0.7,0-1.3-0.1-1.9-0.1H136v-2.4h1.3c0.7,0,1.3,0,1.7-0.1c0.6-0.1,1-0.4,1.4-0.7c0.4-0.3,0.7-0.7,0.9-1c0.3-0.4,0.4-0.9,0.4-1.4
	c0-0.9-0.4-1.6-1-2c-0.7-0.6-1.6-0.9-2.6-0.9c-0.7,0-1.4,0.1-2.3,0.4c-0.7,0.1-1.3,0.4-1.9,0.7L133.3,22.3z M82.6,31.6
	c2.7-3.3,4.6-7.9,4-12.4c-3.9,0.1-8.7,2.6-11.4,5.9c-2.6,3-4.7,7.7-4.1,12.1C75.5,37.4,79.9,34.9,82.6,31.6L82.6,31.6z M92.5,60.7
	c0-9.9,8.1-14.7,8.4-14.9C96.3,39,89.2,38.2,86.6,38c-6-0.6-11.9,3.6-15,3.6c-3.1,0-7.9-3.6-12.9-3.4c-6.6,0.1-12.7,4-16.1,9.9
	c-7,12-1.9,29.7,4.9,39.4c3.4,4.9,7.3,10.1,12.3,9.9c5-0.1,6.9-3.1,12.9-3.1c6,0,7.9,3.1,13,3.1c5.3-0.1,8.7-4.9,11.9-9.6
	c4-5.6,5.4-10.9,5.6-11.1C102.9,76.5,92.6,72.6,92.5,60.7z"/>
</svg>
