<svg xmlns="http://www.w3.org/2000/svg" width="15.969" height="10" viewBox="0 0 15.969 10">
  <metadata><?xpacket begin="﻿" id="W5M0MpCehiHzreSzNTczkc9d"?>
<x:xmpmeta xmlns:x="adobe:ns:meta/" x:xmptk="Adobe XMP Core 5.6-c138 79.159824, 2016/09/14-01:09:01        ">
   <rdf:RDF xmlns:rdf="http://www.w3.org/1999/02/22-rdf-syntax-ns#">
      <rdf:Description rdf:about=""/>
   </rdf:RDF>
</x:xmpmeta>
                                                                                                    
                                                                                                    
                                                                                                    
                                                                                                    
                                                                                                    
                                                                                                    
                                                                                                    
                                                                                                    
                                                                                                    
                                                                                                    
                                                                                                    
                                                                                                    
                                                                                                    
                                                                                                    
                                                                                                    
                                                                                                    
                                                                                                    
                                                                                                    
                                                                                                    
                                                                                                    
                           
<?xpacket end="w"?></metadata>
<defs>
    <style>
      .cls-1 {
        fill: #fff;
        fill-rule: evenodd;
        opacity: 0.5;
      }
    </style>
  </defs>
  <path class="cls-1" d="M7.992,0C4.938,0,2.17,1.75.125,4.6a0.687,0.687,0,0,0,0,.791C2.17,8.246,4.938,10,7.992,10s5.822-1.75,7.866-4.6a0.687,0.687,0,0,0,0-.791C13.814,1.754,11.045,0,7.992,0Zm0.22,8.521A3.447,3.447,0,0,1,4.64,4.773,3.459,3.459,0,0,1,7.775,1.482,3.446,3.446,0,0,1,11.347,5.23,3.467,3.467,0,0,1,8.211,8.521ZM8.11,6.895A1.857,1.857,0,0,1,6.186,4.876,1.858,1.858,0,0,1,7.874,3.105,1.857,1.857,0,0,1,9.8,5.124,1.859,1.859,0,0,1,8.11,6.895Z" transform="translate(-0.031)"/>
</svg>
