<svg id="Слой_4" data-name="Слой 4" xmlns="http://www.w3.org/2000/svg" viewBox="0 0 40 40"><title>google+</title><path d="M832.33,364a20,20,0,1,0,20,20A20,20,0,0,0,832.33,364Zm0,38a18,18,0,1,1,18-18A18,18,0,0,1,832.33,402Z" transform="translate(-812.33 -364)"/><path d="M827.9,383.12v2a.56.56,0,0,0,.56.56h4.06a5.16,5.16,0,1,1-1.4-5.54.56.56,0,0,0,.76,0l1.49-1.4a.56.56,0,0,0,0-.81,8.29,8.29,0,0,0-5.55-2.28,8.32,8.32,0,1,0,8.14,8.78c0-.05,0-1.91,0-1.91h-7.51A.56.56,0,0,0,827.9,383.12Z" transform="translate(-812.33 -364)"/><path d="M844.84,382.74h-2v-2a.49.49,0,0,0-.49-.49h-1.68a.49.49,0,0,0-.49.49v2h-2a.49.49,0,0,0-.49.49v1.68a.49.49,0,0,0,.49.49h2v2a.49.49,0,0,0,.49.49h1.68a.49.49,0,0,0,.49-.49v-2h2a.49.49,0,0,0,.49-.49v-1.68A.49.49,0,0,0,844.84,382.74Z" transform="translate(-812.33 -364)"/></svg>