<svg id="Слой_6" data-name="Слой 6" xmlns="http://www.w3.org/2000/svg" viewBox="0 0 40 40"><title>instagram</title><path d="M933,364a20,20,0,1,0,20,20A20,20,0,0,0,933,364Zm0,38a18,18,0,1,1,18-18A18,18,0,0,1,933,402Z" transform="translate(-913.02 -364)"/><path d="M937.5,374h-9a5.53,5.53,0,0,0-5.52,5.52v9a5.53,5.53,0,0,0,5.52,5.52h9a5.53,5.53,0,0,0,5.52-5.52v-9A5.53,5.53,0,0,0,937.5,374Zm0,18.23h-9a3.75,3.75,0,0,1-3.74-3.74v-9a3.75,3.75,0,0,1,3.74-3.74h9a3.75,3.75,0,0,1,3.74,3.74v9h0A3.75,3.75,0,0,1,937.5,392.23Z" transform="translate(-913.02 -364)"/><path d="M933,378.85a5.15,5.15,0,1,0,5.15,5.15A5.16,5.16,0,0,0,933,378.85Zm0,8.53a3.38,3.38,0,1,1,3.38-3.38A3.38,3.38,0,0,1,933,387.38Z" transform="translate(-913.02 -364)"/><path d="M938.39,377.34a1.3,1.3,0,1,0,.92.38A1.31,1.31,0,0,0,938.39,377.34Z" transform="translate(-913.02 -364)"/></svg>