<!-- Generated by IcoMoon.io -->
<svg version="1.1" xmlns="http://www.w3.org/2000/svg" width="32" height="32" viewBox="0 0 32 32">
<title>map</title>
<path fill="#f9705a" d="M16 2.236c-1.403 0-2.682 0.229-3.803 0.662-1.148 0.433-2.144 1.075-2.964 1.895s-1.462 1.816-1.902 2.964c-0.426 1.128-0.656 2.4-0.656 3.803 0 2.892 2.039 6.813 4.282 10.249 1.902 2.898 3.934 5.443 5.043 6.767 1.108-1.325 3.141-3.869 5.036-6.767 2.249-3.436 4.289-7.357 4.289-10.249 0-1.41-0.23-2.689-0.656-3.816-0.426-1.141-1.062-2.131-1.882-2.951-0.82-0.813-1.816-1.462-2.964-1.895-1.134-0.433-2.42-0.662-3.823-0.662zM7.639 3.2c1.030-1.030 2.282-1.843 3.725-2.387 1.39-0.531 2.944-0.813 4.636-0.813s3.246 0.282 4.636 0.813c1.436 0.544 2.695 1.357 3.725 2.387s1.843 2.289 2.387 3.725c0.531 1.39 0.813 2.944 0.813 4.636 0 7.023-9.646 18.243-10.623 19.377 0 0 0 0 0 0l-0.007-0.007-0.013 0.039-0.079 0.079-0.302 0.328-0.557 0.603-0.538-0.63-0.249-0.289c-0.216-0.236-4.833-5.482-7.928-11.056-1.613-2.911-2.826-5.934-2.826-8.446 0-1.692 0.282-3.246 0.807-4.636 0.341-0.898 0.787-1.725 1.325-2.466h-0.19l1.259-1.259zM16.938 30.938c0-0.013 0.059-0.138 0.026-0.066l-0.033 0.059 0.007 0.007zM16 7.705c0.525 0 1.029 0.105 1.495 0.295 0.479 0.197 0.911 0.485 1.266 0.846 0.361 0.354 0.649 0.787 0.846 1.266 0.197 0.466 0.295 0.97 0.295 1.495 0 0.518-0.105 1.023-0.295 1.482-0.197 0.472-0.485 0.898-0.846 1.259-0.354 0.361-0.787 0.649-1.266 0.846-0.466 0.19-0.971 0.295-1.495 0.295s-1.030-0.105-1.495-0.295c-0.479-0.197-0.911-0.485-1.272-0.846-0.348-0.348-0.636-0.78-0.839-1.259-0.19-0.466-0.302-0.964-0.302-1.482s0.111-1.016 0.295-1.475c0.203-0.479 0.492-0.911 0.839-1.279l0.007-0.007c0.715-0.715 1.685-1.141 2.767-1.141zM17.167 10.42c-0.151-0.151-0.334-0.275-0.531-0.361-0.19-0.079-0.407-0.118-0.636-0.118s-0.433 0.039-0.616 0.118c-0.203 0.085-0.393 0.203-0.551 0.354v0.007c-0.164 0.157-0.289 0.341-0.374 0.551-0.085 0.19-0.131 0.407-0.131 0.636 0 0.216 0.046 0.426 0.125 0.616 0.092 0.203 0.216 0.393 0.38 0.551 0.157 0.157 0.334 0.282 0.525 0.361s0.407 0.118 0.643 0.118c0.236 0 0.459-0.039 0.656-0.118 0.19-0.079 0.361-0.197 0.498-0.348l0.013-0.013c0.157-0.157 0.289-0.348 0.374-0.551 0.085-0.19 0.125-0.4 0.125-0.616 0-0.229-0.046-0.446-0.125-0.636-0.085-0.21-0.216-0.393-0.374-0.551z"></path>
</svg>
