<!-- Generated by IcoMoon.io -->
<svg version="1.1" xmlns="http://www.w3.org/2000/svg" width="32" height="32" viewBox="0 0 32 32">
<title>phone</title>
<path fill="#f86b55" d="M3.045 23.559c-0.68 0.674-1.037 1.475-1.037 2.311 0 0.829 0.35 1.637 1.017 2.331 0.29 0.303 0.586 0.593 0.876 0.869 0.424 0.411 0.829 0.795 1.179 1.219 0.007 0.013 0.020 0.020 0.027 0.034 1.024 1.112 2.331 1.671 3.887 1.671 0.135 0 0.283-0.007 0.424-0.013 2.311-0.148 4.379-1.017 5.928-1.752 4.056-1.96 7.606-4.743 10.557-8.266 2.432-2.924 4.062-5.652 5.154-8.596 0.445-1.199 1.024-3.032 0.862-4.999-0.108-1.219-0.6-2.27-1.462-3.133l-2.291-2.311c-0.007-0.007-0.007-0.007-0.013-0.013-0.674-0.647-1.469-0.99-2.291-0.99s-1.603 0.344-2.257 0.99c-0.438 0.404-0.862 0.835-1.267 1.253-0.202 0.216-0.418 0.431-0.627 0.64l-1.839 1.839c-1.415 1.415-1.415 3.247 0 4.662 0.189 0.189 0.377 0.384 0.566 0.573 0.499 0.505 1.011 1.031 1.563 1.536-0.411 0.909-0.977 1.805-1.819 2.87-1.738 2.136-3.55 3.786-5.544 5.053-0.195 0.121-0.424 0.236-0.667 0.357-0.168 0.088-0.344 0.175-0.519 0.269l-2.129-2.122c-0.68-0.68-1.475-1.037-2.304-1.037-0.835 0-1.624 0.364-2.277 1.044l-3.699 3.712zM4.339 24.832l3.712-3.712c0.007-0.007 0.007-0.007 0.013-0.013 0.209-0.229 0.552-0.492 0.97-0.492 0.424 0 0.788 0.276 1.017 0.505l2.304 2.304c0.115 0.115 0.465 0.465 1.024 0.465 0.222 0 0.438-0.054 0.667-0.168 0.027-0.013 0.054-0.034 0.081-0.047 0.195-0.121 0.424-0.236 0.667-0.357 0.269-0.135 0.552-0.276 0.829-0.451 2.163-1.368 4.123-3.153 5.982-5.443l0.007-0.007c1.024-1.3 1.698-2.392 2.176-3.55 0.007-0.020 0.013-0.040 0.020-0.061 0.121-0.384 0.229-0.95-0.35-1.529-0.007-0.013-0.020-0.020-0.034-0.034-0.586-0.525-1.125-1.064-1.691-1.644-0.195-0.189-0.384-0.384-0.579-0.579-0.714-0.714-0.714-1.374 0-2.088l1.839-1.839c0.216-0.222 0.431-0.438 0.64-0.653 0.411-0.424 0.802-0.822 1.213-1.206 0.007-0.007 0.013-0.013 0.020-0.020 0.216-0.216 0.559-0.472 0.984-0.472 0.344 0 0.694 0.168 1.024 0.478l2.297 2.297c0.559 0.559 0.862 1.213 0.93 2.001 0.101 1.233-0.128 2.54-0.755 4.217-1.017 2.749-2.553 5.309-4.851 8.077-2.782 3.321-6.131 5.942-9.944 7.788-1.395 0.667-3.254 1.448-5.255 1.576-0.101 0.007-0.209 0.007-0.31 0.007-1.051 0-1.853-0.344-2.533-1.071-0.418-0.492-0.862-0.93-1.3-1.347-0.29-0.283-0.559-0.539-0.822-0.822 0.007 0.007 0.007 0 0 0-0.687-0.714-0.687-1.421 0.007-2.109z"></path>
<path fill="#f86b55" d="M15.454 6.616c-0.088-0.492-0.552-0.822-1.051-0.741-2.136 0.364-4.083 1.374-5.625 2.917s-2.553 3.49-2.917 5.625c-0.081 0.499 0.249 0.97 0.748 1.051 0.054 0.007 0.101 0.013 0.155 0.013 0.438 0 0.822-0.31 0.896-0.755 0.303-1.765 1.132-3.368 2.412-4.648s2.883-2.115 4.648-2.412c0.499-0.081 0.822-0.559 0.734-1.051z"></path>
<path fill="#f86b55" d="M0.829 15.192c0.054 0.007 0.101 0.013 0.155 0.013 0.438 0 0.822-0.31 0.896-0.755 0.532-3.139 2.014-6.003 4.291-8.28 2.277-2.27 5.14-3.759 8.28-4.291 0.499-0.088 0.829-0.552 0.748-1.051-0.088-0.492-0.552-0.829-1.044-0.741-3.517 0.6-6.717 2.257-9.263 4.803s-4.204 5.747-4.803 9.263c-0.088 0.492 0.249 0.963 0.741 1.037z"></path>
</svg>
