<!-- Generated by IcoMoon.io -->
<svg version="1.1" xmlns="http://www.w3.org/2000/svg" width="32" height="32" viewBox="0 0 32 32">
<title>somephone</title>
<path fill="#f9705a" d="M27.297 20.526c1.561 1.051 3.238 2.18 3.706 2.555h0.007c0.698 0.554 0.971 1.079 1 1.641 0.029 0.511-0.151 0.928-0.381 1.389l-0.036 0.122c-0.166 0.489-0.338 0.935-0.662 1.461-0.317 0.511-0.756 1.065-1.454 1.763v0c-0.54 0.568-1.216 1.173-2.094 1.641-0.907 0.475-2 0.806-3.332 0.806-0.712 0-1.475-0.094-2.295-0.295-0.792-0.187-1.641-0.482-2.562-0.878v0.007c-1.633-0.705-3.332-1.777-4.864-2.9-2.95-2.159-5.318-4.497-5.454-4.634v0 0c-0.237-0.245-5.519-5.519-7.556-10.319v0c-1.166-2.763-1.36-4.821-1.007-6.447 0.353-1.684 1.259-2.864 2.281-3.886 0.712-0.712 1.266-1.166 1.77-1.482 0.518-0.324 0.964-0.496 1.461-0.662l0.065-0.022 0.058-0.007 0.122-0.022c0.058-0.022 0.115-0.036 0.158-0.050 0.345-0.115 0.626-0.209 0.957-0.209 0.468 0 0.842 0.166 1.159 0.396 0.259 0.194 0.446 0.417 0.619 0.626 0.324 0.396 1.216 1.713 2.13 3.058 0.533 0.792 1.072 1.59 1.374 2.029l0.036 0.058c0.173 0.295 0.353 0.561 0.496 0.756 0.101 0.158 0.187 0.281 0.252 0.381 0.209 0.281 0.36 0.561 0.439 0.842 0.101 0.353 0.094 0.705-0.007 1.043-0.101 0.317-0.273 0.619-0.533 0.892-0.223 0.237-0.504 0.453-0.849 0.633l-0.022 0.007c-0.554 0.281-1.051 0.597-1.432 0.907-0.173 0.13-0.309 0.245-0.403 0.338 0.669 0.835 2.547 2.734 4.044 4.253 0.216 0.216 0.425 0.432 0.619 0.626 0.907 0.892 2.087 2.051 3.13 3.044 0.734 0.698 1.389 1.302 1.799 1.648 0.029-0.065 0.086-0.151 0.173-0.259 0.309-0.367 0.669-0.885 1.036-1.54 0.101-0.281 0.353-0.741 0.77-1.072 0.331-0.266 0.748-0.453 1.281-0.453 0.216 0 0.475 0.036 0.741 0.122 0.216 0.079 0.439 0.187 0.662 0.345l0.007 0.014c0.094 0.072 0.266 0.18 0.475 0.317 0.223 0.144 0.475 0.309 0.72 0.475v0c0.432 0.295 0.425 0.288 1.396 0.943zM29.348 25.391l0.050-0.13c0.072-0.194 0.122-0.223 0.108-0.266-0.022-0.108-0.014 0.094-0.101 0.022l-0.007-0.007c-0.237-0.187-1.065-0.756-2.044-1.41-1.094-0.741-2.137-1.432-2.907-1.95l-0.007-0.007c-0.166-0.108-0.345-0.237-0.504-0.353-0.266-0.194-0.482-0.345-0.54-0.367-0.007 0-0.007 0.014-0.014 0.022v0c-0.317 0.576-0.763 1.338-1.288 1.979-0.619 0.756-1.367 1.331-2.202 1.331-0.158 0-0.317-0.022-0.461-0.065-0.13-0.029-0.237-0.072-0.338-0.108l-0.086-0.043c-0.439-0.245-1.302-0.993-2.231-1.864-1.446-1.36-3.13-3.065-3.504-3.476-0.36-0.338-2.18-2.123-3.591-3.62-0.835-0.885-1.54-1.691-1.777-2.116l-0.050-0.079-0.022-0.079c-0.058-0.187-0.101-0.367-0.122-0.576-0.029-0.237-0.014-0.475 0.065-0.734l0.007-0.022c0.194-0.576 0.64-1.101 1.173-1.554 0.698-0.604 1.562-1.094 2.072-1.36-0.029-0.043-0.050-0.079-0.079-0.13-0.13-0.194-0.317-0.475-0.568-0.799l-0.036-0.058c-0.604-0.935-1.446-2.202-2.137-3.217-0.554-0.813-1.022-1.482-1.202-1.705-0.043 0.014-0.086 0.036-0.137 0.050l-0.144 0.058-0.065 0.022c-0.288 0.094-0.568 0.18-0.899 0.381-0.353 0.201-0.777 0.532-1.353 1.108v0c-0.82 0.864-1.432 1.756-1.619 2.878-0.194 1.173 0.043 2.655 0.921 4.699v0c0.612 1.446 1.59 2.986 2.627 4.397 2.044 2.792 4.282 5.052 4.382 5.152v0c0.101 0.101 2.36 2.331 5.152 4.389 1.41 1.036 2.95 2.029 4.397 2.648v0c0.763 0.331 1.475 0.568 2.137 0.727 0.64 0.151 1.223 0.223 1.763 0.223 0.691 0 1.302-0.108 1.885-0.367 0.597-0.259 1.173-0.684 1.785-1.31v0c0.583-0.583 0.914-1.007 1.115-1.353 0.194-0.331 0.288-0.612 0.374-0.899l0.022-0.065zM7.185 2.587c-0.007 0-0.007 0-0.007 0 0.014 0 0.022 0 0.007 0zM11.136 8.711v0 0 0z"></path>
</svg>
