<svg id="Слой_5" data-name="Слой 5" xmlns="http://www.w3.org/2000/svg" viewBox="0 0 40 40"><title>twitter</title><path d="M883,364a20,20,0,1,0,20,20A20,20,0,0,0,883,364Zm0,38a18,18,0,1,1,18-18A18,18,0,0,1,883,402Z" transform="translate(-863.01 -364)"/><path d="M891.6,378.33a6.82,6.82,0,0,1-.87.32,3.85,3.85,0,0,0,.78-1.38.29.29,0,0,0-.42-.34,6.85,6.85,0,0,1-2,.8,3.87,3.87,0,0,0-6.57,2.76,4,4,0,0,0,0,.5,9.89,9.89,0,0,1-6.79-3.6.29.29,0,0,0-.48,0,3.87,3.87,0,0,0,.4,4.45,3.27,3.27,0,0,1-.52-.23.29.29,0,0,0-.43.25v.05a3.88,3.88,0,0,0,1.89,3.32l-.29,0a.29.29,0,0,0-.33.37,3.86,3.86,0,0,0,2.83,2.59,6.84,6.84,0,0,1-3.65,1,7,7,0,0,1-.82,0,.29.29,0,0,0-.19.53,10.42,10.42,0,0,0,5.63,1.65,10,10,0,0,0,7.77-3.41,10.81,10.81,0,0,0,2.69-7c0-.11,0-.21,0-.32a7.51,7.51,0,0,0,1.73-1.83.29.29,0,0,0-.36-.43Z" transform="translate(-863.01 -364)"/></svg>