<svg id="Слой_1" data-name="Слой 1" xmlns="http://www.w3.org/2000/svg" viewBox="0 0 40 40"><title>vk</title><path d="M683,364a20,20,0,1,0,20,20A20,20,0,0,0,683,364Zm0,38a18,18,0,1,1,18-18A18,18,0,0,1,683,402Z" transform="translate(-663 -364)"/><path d="M691.7,382.13a8.37,8.37,0,0,0,1.34-2.32c.17-.55,0-.8-.55-.89a1.74,1.74,0,0,0-.3,0h-3.36a.75.75,0,0,0-.79.54c-.2.5-.4,1-.64,1.47a12.08,12.08,0,0,1-2,3c-.18.2-.39.44-.7.34s-.5-.78-.49-1v-3.88c-.07-.55-.2-.8-.75-.91H680a1.11,1.11,0,0,0-.95.47c-.14.17-.19.28.11.33a1.16,1.16,0,0,1,1,1.07,11.91,11.91,0,0,1,0,2.79,2.6,2.6,0,0,1-.18.8.47.47,0,0,1-.8.23,3.24,3.24,0,0,1-.77-.85,18.75,18.75,0,0,1-2-3.8.89.89,0,0,0-.84-.63c-1,0-2,0-3,0-.61,0-.79.31-.54.86a37.53,37.53,0,0,0,3.91,7,9.75,9.75,0,0,0,3,2.78,7.91,7.91,0,0,0,4.42,1c.73,0,1-.22,1-1a3.23,3.23,0,0,1,.33-1.44.65.65,0,0,1,1-.25,2.91,2.91,0,0,1,.56.49c.41.45.81.91,1.23,1.35a2.39,2.39,0,0,0,2,.8h3.09c.5,0,.76-.64.47-1.2a5.94,5.94,0,0,0-.74-1.07,28.71,28.71,0,0,0-2.08-2.09c-.63-.62-.67-1-.16-1.69S691.14,382.91,691.7,382.13Z" transform="translate(-663 -364)"/></svg>